<?xml version="1.0" encoding="iso-8859-1"?>
<!-- Generator: Adobe Illustrator 19.0.0, SVG Export Plug-In . SVG Version: 6.00 Build 0)  -->
<svg version="1.1" id="Capa_1" xmlns="http://www.w3.org/2000/svg" x="0px"
     y="0px"
     viewBox="0 0 496 496" style="enable-background:new 0 0 496 496;" xml:space="preserve">
<g>
	<g>
		<g>
			<path d="M446.576,283.656l-66.24-11.04c14.824-11.64,25-28.92,27.192-48.616H408c17.648,0,32-14.352,32-32v-71.016
				c0-21.824-13.968-40.912-34.408-47.68l-2.76-5.52C394.264,50.64,377.048,40,357.888,40H320c-48.52,0-88,39.48-88,88v64
				c0,17.648,14.352,32,32,32h0.472c2.192,19.744,12.416,37.056,27.304,48.696L192,289.224V296h-56v-23.568l0.088-0.808
				c3.016-27.136,16.088-52.776,37.792-74.136C195.568,176.16,208,145,208,112c0-61.76-43.064-112-96-112C59.064,0,16,50.24,16,112
				c0,33,12.432,64.16,34.12,85.488c21.704,21.36,34.776,46.992,37.792,74.144L88,272.44V296c-17.648,0-32,14.352-32,32
				s14.352,32,32,32v32c0,8.824,7.176,16,16,16h16c8.824,0,16-7.176,16-16v-32h56v8h48v128h192v-20.448
				c4.728,2.752,10.144,4.448,16,4.448c17.648,0,32-14.352,32-32v-80v-8v-36.888C480,303.48,465.944,286.88,446.576,283.656z
				 M88,344c-8.824,0-16-7.176-16-16c0-8.824,7.176-16,16-16V344z M120,392l-16,0.008V280h16V392z M120.984,264h-17.96
				c-4.544-28.648-18.872-55.48-41.688-77.92C42.688,167.736,32,140.736,32,112c0-52.936,35.888-96,80-96s80,43.064,80,96
				c0,28.736-10.688,55.736-29.336,74.08C139.848,208.528,125.52,235.36,120.984,264z M192,344h-56v-32h56V344z M391.304,290.68
				l-5.448,27.24l-24.52-7.008c6.976-5.728,11.992-13.752,13.856-22.912L391.304,290.68z M408,208v-32c8.824,0,16,7.176,16,16
				C424,200.824,416.824,208,408,208z M264,208c-8.824,0-16-7.176-16-16c0-8.824,7.176-16,16-16V208z M265.472,160H264
				c-5.856,0-11.272,1.696-16,4.448V128c0-39.696,32.304-72,72-72h37.888c13.056,0,24.792,7.256,30.632,18.928l5.976,11.936
				l3.568,0.896C413.336,91.576,424,105.24,424,120.984v43.472c-4.728-2.76-10.144-4.456-16-4.456h-1.472
				c-3.312-9.288-12.112-16-22.528-16h-96C277.584,144,268.784,150.712,265.472,160z M280,216v-48c0-4.408,3.592-8,8-8h96
				c4.408,0,8,3.592,8,8v48c0,30.88-25.12,56-56,56S280,246.88,280,216z M359.6,283.944C357.704,295.296,347.88,304,336,304
				s-21.704-8.704-23.6-20.056c7.408,2.584,15.328,4.056,23.6,4.056C344.272,288,352.192,286.528,359.6,283.944z M296.656,288h0.152
				c1.864,9.16,6.88,17.192,13.856,22.912l-24.52,7.008l-5.456-27.264L296.656,288z M464,448c0,8.824-7.176,16-16,16
				c-8.824,0-16-7.176-16-16v-16v-64h32V448z M464,352h-48v80v16v29.312l-53.336-15.688c-26.776-7.88-51.96-21.84-72.832-40.384
				l-10.624,11.968c22.624,20.096,49.92,35.224,78.944,43.76L368.456,480H256v-71.16c3.536,4.36,7.2,8.616,11.064,12.672
				l11.568-11.064c-8.464-8.848-16.016-18.616-22.64-28.952V352h-48v-49.224l56.904-9.48l8.952,44.784L336,320.32l62.144,17.752
				l8.952-44.768l36.848,6.128c11.624,1.944,20.056,11.896,20.056,23.68V352z" fill="#353a2e"/>
            <rect x="368" y="360" width="32" height="16" fill="#353a2e"/>
            <rect x="296" y="176" width="16" height="16" fill="#353a2e"/>
            <rect x="360" y="176" width="16" height="16" fill="#353a2e"/>
            <path d="M328,256h16c13.232,0,24-10.768,24-24h-16c0,4.408-3.592,8-8,8h-16c-4.408,0-8-3.592-8-8h-16
				C304,245.232,314.768,256,328,256z" fill="#353a2e"/>
            <path d="M112,32c-35.288,0-64,35.888-64,80s28.712,80,64,80s64-35.888,64-80S147.288,32,112,32z M155.52,85.176l-4.464,2.032
				l-19.752-8.984l17.112-7.784C151.28,74.872,153.656,79.824,155.52,85.176z M92.24,96L112,87.016L131.744,96l-19.752,8.984
				L92.24,96z M131.752,131.56L112,140.544l-19.768-8.992l19.76-8.984L131.752,131.56z M112,48c9.36,0,18.072,3.648,25.464,9.848
				L112,69.432L86.536,57.848C93.928,51.648,102.64,48,112,48z M75.568,70.44l17.112,7.784l-19.76,8.992l-4.456-2.024
				C70.336,79.832,72.72,74.872,75.568,70.44z M64,112c0-3.736,0.288-7.368,0.752-10.928l27.92,12.704l-27.432,12.48
				C64.456,121.664,64,116.904,64,112z M69.576,141.864l3.344-1.52l19.768,8.992l-15.264,6.944
				C74.336,151.992,71.68,147.16,69.576,141.864z M112,176c-8.176,0-15.88-2.752-22.624-7.584L112,158.12l22.624,10.296
				C127.88,173.248,120.176,176,112,176z M146.576,156.28l-15.264-6.944l19.752-8.992l3.352,1.528
				C152.312,147.16,149.664,152,146.576,156.28z M131.304,113.776l27.944-12.712c0.464,3.56,0.752,7.2,0.752,10.936
				c0,4.912-0.456,9.672-1.248,14.264L131.304,113.776z" fill="#353a2e"/>
		</g>
	</g>
</g>
    <g>
</g>
    <g>
</g>
    <g>
</g>
    <g>
</g>
    <g>
</g>
    <g>
</g>
    <g>
</g>
    <g>
</g>
    <g>
</g>
    <g>
</g>
    <g>
</g>
    <g>
</g>
    <g>
</g>
    <g>
</g>
    <g>
</g>
</svg>
