<?xml version="1.0" encoding="iso-8859-1"?>
<!-- Generator: Adobe Illustrator 19.0.0, SVG Export Plug-In . SVG Version: 6.00 Build 0)  -->
<svg version="1.1" id="Capa_1" xmlns="http://www.w3.org/2000/svg" x="0px"
     y="0px"
     viewBox="0 0 493.677 493.677" style="enable-background:new 0 0 493.677 493.677;" xml:space="preserve">
<g>
	<g>
		<g>
			<path d="M456.181,37.496C432.013,13.312,399.861,0,365.677,0c-34.184,0-66.336,13.312-90.504,37.496
				c-24.176,24.168-37.496,56.32-37.496,90.504c0,34.184,13.32,66.336,37.496,90.504C299.341,242.688,331.493,256,365.677,256
				c34.184,0,66.336-13.312,90.504-37.496c24.176-24.168,37.496-56.32,37.496-90.504S480.357,61.664,456.181,37.496z
				 M286.485,48.808c17.696-17.696,40.296-28.624,64.712-31.768c-0.456,11.112,1.128,29.728,14.48,43.08
				c9.576,9.576,20.36,14.192,30.792,18.664c9.456,4.056,18.384,7.88,25.784,15.272c13.68,13.688,19.552,48.328-11.32,79.2
				s-65.504,24.992-79.192,11.312c-7.4-7.4-11.224-16.328-15.28-25.784c-4.472-10.432-9.088-21.216-18.664-30.792
				c-13.352-13.36-31.968-14.944-43.08-14.488C257.853,89.096,268.789,66.496,286.485,48.808z M444.869,207.192
				C423.717,228.352,395.589,240,365.677,240s-58.04-11.648-79.192-32.808c-20.776-20.776-32.32-48.288-32.728-77.6
				c7.928-0.528,22.976-0.024,32.728,9.72c7.392,7.4,11.216,16.32,15.272,25.776c4.472,10.44,9.096,21.224,18.672,30.8
				c9.96,9.96,24.824,15.76,41.352,15.76c19.584,0,41.52-8.128,60.464-27.072c34.936-34.936,33.072-80.064,11.32-101.832
				c-9.576-9.576-20.36-14.192-30.792-18.664c-9.456-4.056-18.384-7.88-25.784-15.272c-9.744-9.752-10.248-24.792-9.72-32.728
				c29.312,0.408,56.824,11.952,77.6,32.728c21.152,21.152,32.808,49.28,32.808,79.192S466.021,186.04,444.869,207.192z"
                  fill="#353a2e"/>

            <rect x="-19.59" y="340.501" transform="matrix(0.7071 -0.7071 0.7071 0.7071 -203.9085 204.7228)"
                  width="329.517" height="16" fill="#353a2e"/>

            <rect x="3.634" y="473.549" transform="matrix(-0.7071 -0.7071 0.7071 -0.7071 -320.9659 831.0535)" width="16"
                  height="16.904" fill="#353a2e"/>
            <rect x="180.307" y="154.155" transform="matrix(0.7071 0.7071 -0.7071 0.7071 197.5247 -74.181)" width="16"
                  height="94.375" fill="#353a2e"/>
            <rect x="88.851" y="263.374" transform="matrix(0.7071 0.7071 -0.7071 0.7071 235.4293 17.2838)" width="16"
                  height="58.911" fill="#353a2e"/>
            <rect x="51.386" y="322.138" transform="matrix(0.7071 0.7071 -0.7071 0.7071 250.9129 54.7347)" width="16"
                  height="16.216" fill="#353a2e"/>

            <rect x="221.941" y="232.348" transform="matrix(-0.7071 -0.7071 0.7071 -0.7071 132.5085 790.348)" width="16"
                  height="270.765" fill="#353a2e"/>

            <rect x="107.631" y="473.592" transform="matrix(-0.7071 -0.7071 0.7071 -0.7071 -143.463 904.6641)"
                  width="16" height="16.904" fill="#353a2e"/>
		</g>
	</g>
</g>
    <g>
</g>
    <g>
</g>
    <g>
</g>
    <g>
</g>
    <g>
</g>
    <g>
</g>
    <g>
</g>
    <g>
</g>
    <g>
</g>
    <g>
</g>
    <g>
</g>
    <g>
</g>
    <g>
</g>
    <g>
</g>
    <g>
</g>
</svg>
